<svg width="23" height="23" viewBox="0 0 23 23" fill="none" xmlns="http://www.w3.org/2000/svg">
<path d="M18.6875 15.8125C17.3521 15.8125 16.2366 16.7325 15.9146 17.9688H7.08544C6.95607 17.4749 6.69763 17.0243 6.33664 16.6634C5.97565 16.3024 5.52511 16.0439 5.03125 15.9146V13.6562C5.03125 12.8635 5.67597 12.2188 6.46875 12.2188H16.5312C18.1168 12.2188 19.4062 10.9293 19.4062 9.34375V7.08544C20.6425 6.76416 21.5625 5.64794 21.5625 4.3125C21.5625 2.72694 20.2731 1.4375 18.6875 1.4375C17.1019 1.4375 15.8125 2.72694 15.8125 4.3125C15.8125 5.64794 16.7325 6.76344 17.9688 7.08544V9.34375C17.9688 10.1365 17.324 10.7812 16.5312 10.7812H6.46875C4.88319 10.7812 3.59375 12.0707 3.59375 13.6562V15.9146C2.3575 16.2358 1.4375 17.3521 1.4375 18.6875C1.4375 20.2731 2.72694 21.5625 4.3125 21.5625C5.64794 21.5625 6.76344 20.6425 7.08544 19.4062H15.9146C16.2358 20.6425 17.3521 21.5625 18.6875 21.5625C20.2731 21.5625 21.5625 20.2731 21.5625 18.6875C21.5625 17.1019 20.2731 15.8125 18.6875 15.8125ZM17.25 4.3125C17.25 3.51972 17.8947 2.875 18.6875 2.875C19.4803 2.875 20.125 3.51972 20.125 4.3125C20.125 5.10528 19.4803 5.75 18.6875 5.75C17.8947 5.75 17.25 5.10528 17.25 4.3125ZM4.3125 20.125C3.51972 20.125 2.875 19.4803 2.875 18.6875C2.875 17.8947 3.51972 17.25 4.3125 17.25C5.10528 17.25 5.75 17.8947 5.75 18.6875C5.75 19.4803 5.10528 20.125 4.3125 20.125ZM18.6875 20.125C17.8947 20.125 17.25 19.4803 17.25 18.6875C17.25 17.8947 17.8947 17.25 18.6875 17.25C19.4803 17.25 20.125 17.8947 20.125 18.6875C20.125 19.4803 19.4803 20.125 18.6875 20.125Z" fill="black"/>
<path d="M4.3125 7.1875C4.84438 7.1875 5.336 7.03297 5.76366 6.77997L8.32744 9.34375L9.34375 8.32744L6.77997 5.76366C7.04408 5.32549 7.18489 4.8241 7.1875 4.3125C7.1875 2.72694 5.89806 1.4375 4.3125 1.4375C2.72694 1.4375 1.4375 2.72694 1.4375 4.3125C1.4375 5.89806 2.72694 7.1875 4.3125 7.1875ZM4.3125 2.875C5.10528 2.875 5.75 3.51972 5.75 4.3125C5.75 5.10528 5.10528 5.75 4.3125 5.75C3.51972 5.75 2.875 5.10528 2.875 4.3125C2.875 3.51972 3.51972 2.875 4.3125 2.875Z" fill="black"/>
</svg>
