<svg width="13" height="13" viewBox="0 0 13 13" fill="none" xmlns="http://www.w3.org/2000/svg">
<path d="M6.50028 4.87767C7.07492 4.87767 7.62602 5.10594 8.03235 5.51227C8.43868 5.9186 8.66695 6.4697 8.66695 7.04433C8.66695 7.61897 8.43868 8.17007 8.03235 8.5764C7.62602 8.98273 7.07492 9.211 6.50028 9.211C5.92565 9.211 5.37455 8.98273 4.96822 8.5764C4.56189 8.17007 4.33362 7.61897 4.33362 7.04433C4.33362 6.4697 4.56189 5.9186 4.96822 5.51227C5.37455 5.10594 5.92565 4.87767 6.50028 4.87767ZM6.50028 2.97913C8.99899 2.97913 11.1565 4.68538 11.755 7.07629C11.7812 7.1808 11.7648 7.29145 11.7095 7.38389C11.6541 7.47633 11.5643 7.54299 11.4598 7.56921C11.3553 7.59543 11.2446 7.57905 11.1522 7.52369C11.0597 7.46833 10.9931 7.37851 10.9669 7.274C10.7161 6.27921 10.1404 5.39662 9.33105 4.76616C8.52172 4.13569 7.52508 3.79346 6.49917 3.7937C5.47326 3.79395 4.47679 4.13668 3.66776 4.76753C2.85874 5.39838 2.28346 6.28126 2.03316 7.27617C2.02025 7.32795 1.99726 7.37669 1.96552 7.41959C1.93377 7.46249 1.89389 7.49872 1.84814 7.52621C1.8024 7.5537 1.75168 7.57191 1.6989 7.57979C1.64612 7.58768 1.5923 7.5851 1.54051 7.57219C1.48873 7.55928 1.43999 7.53629 1.39709 7.50455C1.35419 7.4728 1.31796 7.43292 1.29047 7.38717C1.26298 7.34143 1.24478 7.29071 1.23689 7.23793C1.229 7.18515 1.23158 7.13133 1.24449 7.07954C1.53825 5.90808 2.21497 4.86833 3.16719 4.12544C4.11942 3.38254 5.29255 2.97908 6.50028 2.97913Z" fill="black"/>
</svg>
