<svg width="23" height="23" viewBox="0 0 23 23" fill="none" xmlns="http://www.w3.org/2000/svg">
<path d="M5.1142 0.795979C4.73569 0.797776 4.35898 0.833399 3.98693 0.905409C8.78908 3.796 12.3749 7.65986 15.2048 12.1289C15.3183 9.71387 14.3482 7.22655 12.8 5.19967C12.1668 5.43767 11.386 5.233 10.8474 4.6943C10.3092 4.15614 10.1035 3.37598 10.3405 2.74298C8.73562 1.53202 6.90371 0.786994 5.1142 0.795979ZM22.2098 1.71261L19.0232 5.19967L20.3735 10.8402L17.8987 11.2346L17.0269 14.8565L20.3287 16.614L18.4756 19.1268L19.8079 21.1048L15.8197 19.8639L16.5609 17.8943L13.116 16.374L13.7055 12.5753L8.70234 15.1863L8.51277 18.7015L3.47163 17.4591L1.97798 22.138H22.2097V1.71261H22.2098ZM11.7317 2.63778C11.7143 2.63822 11.6969 2.63903 11.6798 2.64047C11.5161 2.65507 11.3707 2.71666 11.2671 2.82016C10.9909 3.09643 11.0089 3.66828 11.4411 4.10043C11.8734 4.53272 12.4453 4.55073 12.7214 4.27455C12.9976 3.99837 12.9796 3.42651 12.5473 2.99428C12.2941 2.74105 11.9932 2.63063 11.7317 2.63778ZM8.82727 5.73168L1.13574 13.4259C1.32769 13.9617 1.6311 14.3715 2.27002 14.5771L9.97143 6.87301C9.62121 6.47365 9.23884 6.09433 8.82727 5.73168ZM15.96 6.2539L16.3784 10.0582L17.6109 6.25385H15.96L15.96 6.2539ZM10.0289 9.6216L9.12348 11.236L13.2872 11.5673L10.029 9.62155L10.0289 9.6216Z" fill="black"/>
</svg>
