<svg width="23" height="23" viewBox="0 0 23 23" fill="none" xmlns="http://www.w3.org/2000/svg">
<g clip-path="url(#clip0_567_561)">
<path d="M4.38383 0.503906C6.57544 3.38717 7.80661 6.55318 8.73281 10.3909H5.25694L5.81711 11.076L7.0946 12.6383L11.3369 17.9503L12.3842 16.628L16.9226 11.0759L17.4828 10.3909H14.1234C15.0497 6.55309 16.2808 3.38722 18.4725 0.503906H14.9012C13.0051 3.68141 12.4368 7.06506 11.9503 11.2304H15.7125L11.3706 16.5424L7.02717 11.2304H10.9017C10.4237 7.06057 9.76929 3.63887 7.89753 0.503906H4.38383ZM4.60283 16.7908C4.30724 16.8656 4.02468 16.9446 3.75767 17.0281C2.78556 17.332 2.01268 17.6936 1.51157 18.0641C1.01052 18.4346 0.8125 18.7771 0.8125 19.0735C0.8125 19.3697 1.01052 19.7123 1.51157 20.0827C2.01268 20.4532 2.78556 20.8148 3.75767 21.1188C5.7018 21.7267 8.43646 22.1127 11.4562 22.1127C14.4759 22.1127 17.2106 21.7267 19.1547 21.1188C20.1268 20.8148 20.8997 20.4532 21.4008 20.0827C21.9019 19.7123 22.0999 19.3697 22.0999 19.0734C22.0999 18.7771 21.9018 18.4346 21.4007 18.064C20.8997 17.6936 20.1268 17.332 19.1546 17.0281C18.8876 16.9446 18.6051 16.8656 18.3096 16.7909C19.1565 17.2015 19.6502 17.692 19.6502 18.2199C19.6502 19.6604 15.9817 20.8282 11.4562 20.8282C6.93072 20.8282 3.26218 19.6604 3.26218 18.2199C3.26218 17.6921 3.75587 17.2014 4.60283 16.7908V16.7908ZM7.47495 17.0477C7.25596 17.1004 7.04761 17.1572 6.85449 17.2175C6.27859 17.3977 5.8243 17.6132 5.54475 17.8199C5.26516 18.0265 5.18955 18.1884 5.18955 18.2957C5.18955 18.4031 5.2652 18.565 5.54475 18.7717C5.82434 18.9783 6.27859 19.1938 6.85454 19.3739C8.00642 19.7342 9.6454 19.9664 11.4562 19.9664C13.267 19.9664 14.9075 19.7342 16.0593 19.3739C16.6352 19.1938 17.0881 18.9784 17.3677 18.7717C17.6472 18.5651 17.7228 18.4031 17.7228 18.2958C17.7228 18.1886 17.6473 18.0266 17.3677 17.82C17.0882 17.6133 16.6353 17.3978 16.0594 17.2177C15.8659 17.1573 15.6571 17.1007 15.4375 17.0479C15.828 17.263 16.0524 17.5131 16.0524 17.7792C16.0524 18.5873 13.9946 19.2421 11.4563 19.2421C8.91802 19.2421 6.86033 18.5873 6.86033 17.7793C6.86033 17.5132 7.08503 17.263 7.47513 17.048L7.47495 17.0477Z" fill="black"/>
</g>
<defs>
<clipPath id="clip0_567_561">
<rect width="23" height="23" fill="white"/>
</clipPath>
</defs>
</svg>
