<svg width="48" height="48" viewBox="0 0 48 48" fill="none" xmlns="http://www.w3.org/2000/svg">
<g filter="url(#filter0_ddii_703_705)">
<rect x="5" y="5" width="30" height="30" rx="5" fill="white"/>
</g>
<path fill-rule="evenodd" clip-rule="evenodd" d="M15.1514 15.0514L22.7044 19.9709L15.2583 25.0508C15.1606 25.1175 15.0769 25.2028 15.0121 25.3019C14.9472 25.401 14.9026 25.5118 14.8806 25.6281C14.8586 25.7444 14.8598 25.8639 14.884 25.9798C14.9082 26.0957 14.955 26.2056 15.0217 26.3034C15.0884 26.4012 15.1738 26.4849 15.2728 26.5497C15.3719 26.6145 15.4827 26.6592 15.599 26.6811C15.7153 26.7031 15.8348 26.702 15.9507 26.6778C16.0666 26.6535 16.1765 26.6067 16.2743 26.54L24.7152 20.7814C24.8512 20.6886 24.9621 20.5637 25.0383 20.4178C25.1144 20.2718 25.1533 20.1093 25.1515 19.9447C25.1497 19.7801 25.1074 19.6185 25.0282 19.4742C24.9489 19.3299 24.8353 19.2074 24.6974 19.1175L16.1353 13.5408C16.0361 13.4762 15.9251 13.4317 15.8088 13.41C15.6924 13.3883 15.5729 13.3897 15.4571 13.4141C15.3413 13.4386 15.2314 13.4856 15.1338 13.5525C15.0361 13.6195 14.9526 13.7049 14.888 13.8041C14.8234 13.9033 14.779 14.0143 14.7572 14.1306C14.7355 14.247 14.7369 14.3665 14.7614 14.4823C14.7858 14.5981 14.8329 14.708 14.8998 14.8056C14.9667 14.9033 15.0522 14.9868 15.1514 15.0514Z" fill="black"/>
<defs>
<filter id="filter0_ddii_703_705" x="0" y="0" width="48" height="48" filterUnits="userSpaceOnUse" color-interpolation-filters="sRGB">
<feFlood flood-opacity="0" result="BackgroundImageFix"/>
<feColorMatrix in="SourceAlpha" type="matrix" values="0 0 0 0 0 0 0 0 0 0 0 0 0 0 0 0 0 0 127 0" result="hardAlpha"/>
<feOffset dx="4" dy="4"/>
<feGaussianBlur stdDeviation="4.5"/>
<feComposite in2="hardAlpha" operator="out"/>
<feColorMatrix type="matrix" values="0 0 0 0 0 0 0 0 0 0 0 0 0 0 0 0 0 0 0.25 0"/>
<feBlend mode="normal" in2="BackgroundImageFix" result="effect1_dropShadow_703_705"/>
<feColorMatrix in="SourceAlpha" type="matrix" values="0 0 0 0 0 0 0 0 0 0 0 0 0 0 0 0 0 0 127 0" result="hardAlpha"/>
<feOffset dy="4"/>
<feGaussianBlur stdDeviation="2"/>
<feComposite in2="hardAlpha" operator="out"/>
<feColorMatrix type="matrix" values="0 0 0 0 0 0 0 0 0 0 0 0 0 0 0 0 0 0 0.25 0"/>
<feBlend mode="normal" in2="effect1_dropShadow_703_705" result="effect2_dropShadow_703_705"/>
<feBlend mode="normal" in="SourceGraphic" in2="effect2_dropShadow_703_705" result="shape"/>
<feColorMatrix in="SourceAlpha" type="matrix" values="0 0 0 0 0 0 0 0 0 0 0 0 0 0 0 0 0 0 127 0" result="hardAlpha"/>
<feOffset dx="1" dy="2"/>
<feGaussianBlur stdDeviation="2.5"/>
<feComposite in2="hardAlpha" operator="arithmetic" k2="-1" k3="1"/>
<feColorMatrix type="matrix" values="0 0 0 0 0 0 0 0 0 0 0 0 0 0 0 0 0 0 0.25 0"/>
<feBlend mode="normal" in2="shape" result="effect3_innerShadow_703_705"/>
<feColorMatrix in="SourceAlpha" type="matrix" values="0 0 0 0 0 0 0 0 0 0 0 0 0 0 0 0 0 0 127 0" result="hardAlpha"/>
<feOffset dx="-4" dy="-4"/>
<feGaussianBlur stdDeviation="3.5"/>
<feComposite in2="hardAlpha" operator="arithmetic" k2="-1" k3="1"/>
<feColorMatrix type="matrix" values="0 0 0 0 0 0 0 0 0 0 0 0 0 0 0 0 0 0 0.25 0"/>
<feBlend mode="normal" in2="effect3_innerShadow_703_705" result="effect4_innerShadow_703_705"/>
</filter>
</defs>
</svg>
