<svg width="27" height="27" viewBox="0 0 27 27" fill="none" xmlns="http://www.w3.org/2000/svg">
<g clip-path="url(#clip0_48_412)">
<g filter="url(#filter0_d_48_412)">
<path d="M13.5 24.75C7.28663 24.75 2.25 19.7134 2.25 13.5C2.25 7.28663 7.28663 2.25 13.5 2.25C19.7134 2.25 24.75 7.28663 24.75 13.5C24.75 19.7134 19.7134 24.75 13.5 24.75ZM13.5 22.5C15.8869 22.5 18.1761 21.5518 19.864 19.864C21.5518 18.1761 22.5 15.8869 22.5 13.5C22.5 11.1131 21.5518 8.82387 19.864 7.13604C18.1761 5.44821 15.8869 4.5 13.5 4.5C11.1131 4.5 8.82387 5.44821 7.13604 7.13604C5.44821 8.82387 4.5 11.1131 4.5 13.5C4.5 15.8869 5.44821 18.1761 7.13604 19.864C8.82387 21.5518 11.1131 22.5 13.5 22.5ZM12.375 16.875H14.625V19.125H12.375V16.875ZM14.625 15.0244V15.75H12.375V14.0625C12.375 13.7641 12.4935 13.478 12.7045 13.267C12.9155 13.056 13.2016 12.9375 13.5 12.9375C13.8196 12.9375 14.1326 12.8467 14.4026 12.6757C14.6726 12.5048 14.8885 12.2607 15.0252 11.9718C15.1619 11.6829 15.2138 11.3611 15.1748 11.0439C15.1357 10.7268 15.0075 10.4272 14.8048 10.18C14.6022 9.93289 14.3335 9.74838 14.0301 9.64797C13.7267 9.54755 13.401 9.53535 13.091 9.61279C12.7809 9.69024 12.4992 9.85413 12.2787 10.0854C12.0581 10.3167 11.9078 10.6059 11.8451 10.9193L9.63788 10.4771C9.77471 9.79322 10.0907 9.15792 10.5535 8.63616C11.0164 8.1144 11.6095 7.7249 12.2722 7.50748C12.9349 7.29007 13.6434 7.25252 14.3254 7.39869C15.0074 7.54486 15.6383 7.8695 16.1537 8.33943C16.6691 8.80935 17.0504 9.40771 17.2588 10.0733C17.4671 10.7389 17.495 11.4479 17.3395 12.1278C17.184 12.8078 16.8508 13.4342 16.3738 13.9431C15.8969 14.452 15.2934 14.8251 14.625 15.0244Z" fill="black"/>
</g>
</g>
<defs>
<filter id="filter0_d_48_412" x="-2.75" y="-0.75" width="32.5" height="32.5" filterUnits="userSpaceOnUse" color-interpolation-filters="sRGB">
<feFlood flood-opacity="0" result="BackgroundImageFix"/>
<feColorMatrix in="SourceAlpha" type="matrix" values="0 0 0 0 0 0 0 0 0 0 0 0 0 0 0 0 0 0 127 0" result="hardAlpha"/>
<feOffset dy="2"/>
<feGaussianBlur stdDeviation="2.5"/>
<feComposite in2="hardAlpha" operator="out"/>
<feColorMatrix type="matrix" values="0 0 0 0 0 0 0 0 0 0 0 0 0 0 0 0 0 0 0.25 0"/>
<feBlend mode="normal" in2="BackgroundImageFix" result="effect1_dropShadow_48_412"/>
<feBlend mode="normal" in="SourceGraphic" in2="effect1_dropShadow_48_412" result="shape"/>
</filter>
<clipPath id="clip0_48_412">
<rect width="27" height="27" fill="white"/>
</clipPath>
</defs>
</svg>
