<svg width="13" height="13" viewBox="0 0 13 13" fill="none" xmlns="http://www.w3.org/2000/svg">
<path d="M0.142828 0.142573C0.0602652 0.225116 0.0100664 0.334548 0.0013586 0.45097C-0.0073492 0.567393 0.0260123 0.683074 0.0953771 0.776981L0.142828 0.831582L2.76496 3.45437C1.48641 4.35049 0.573708 5.67743 0.194178 7.19192C0.164914 7.31659 0.185883 7.44777 0.252552 7.55711C0.319221 7.66645 0.426237 7.74517 0.550471 7.77625C0.674704 7.80733 0.806178 7.78828 0.916479 7.72321C1.02678 7.65814 1.10705 7.55229 1.13994 7.42852C1.47723 6.0843 2.30794 4.9162 3.46696 4.15638L4.64347 5.33289C4.17352 5.82397 3.91455 6.47956 3.92205 7.15924C3.92954 7.83891 4.20291 8.48863 4.68358 8.96922C5.16426 9.44982 5.81402 9.72306 6.4937 9.73044C7.17338 9.73782 7.82892 9.47873 8.31991 9.00869L12.1673 12.8567C12.2543 12.944 12.3711 12.995 12.4942 12.9997C12.6173 13.0043 12.7376 12.9621 12.8309 12.8817C12.9241 12.8012 12.9835 12.6885 12.9971 12.566C13.0106 12.4436 12.9772 12.3205 12.9038 12.2217L12.8563 12.1671L8.88282 8.19293L8.88347 8.19163L4.36592 3.67667L4.36722 3.67537L3.63076 2.94086L0.831835 0.142573C0.740427 0.0512789 0.61652 0 0.487331 0C0.358142 0 0.234235 0.0512789 0.142828 0.142573ZM6.49989 2.2746C5.84989 2.2746 5.21938 2.3708 4.62202 2.55085L5.42608 3.35426C6.8168 3.07889 8.26017 3.34847 9.45774 4.10725C10.6553 4.86604 11.5155 6.056 11.8605 7.43112C11.8942 7.55392 11.9746 7.65868 12.0845 7.72298C12.1944 7.78728 12.3251 7.80602 12.4487 7.7752C12.5722 7.74437 12.6788 7.66643 12.7456 7.55803C12.8125 7.44964 12.8342 7.3194 12.8063 7.19517C12.4538 5.78949 11.6418 4.54187 10.4993 3.65039C9.3567 2.75891 7.94908 2.27469 6.49989 2.2746ZM6.62664 4.55613L9.09732 7.02616C9.06536 6.38129 8.79478 5.77133 8.33817 5.31484C7.88155 4.85834 7.27153 4.58792 6.62664 4.55613Z" fill="black"/>
</svg>
