<svg width="23" height="23" viewBox="0 0 23 23" fill="none" xmlns="http://www.w3.org/2000/svg">
<path d="M10.6 1.81718C10.2439 1.81084 9.86731 1.91102 9.42991 2.16927C11.4796 3.84571 13.2305 5.50612 13.88 8.27452C14.6885 8.18993 15.4964 8.12493 16.1962 8.12313C15.3446 5.72556 13.9353 3.68013 12.0934 2.40323C11.5425 2.02139 11.068 1.82553 10.6 1.81718ZM8.67693 2.59585C7.32496 2.76381 6.15524 3.11416 5.21453 3.69985C3.85483 4.5464 2.9334 5.8716 2.56248 8.00229C2.27673 9.64373 2.47609 11.6146 2.62748 13.3698C3.11322 13.7603 3.67762 14.1198 4.1745 14.4104C4.97806 14.8771 5.94788 15.3528 6.72045 15.5935C6.94267 14.8284 7.1844 14.1573 7.45052 13.4604C8.63286 13.4103 9.77167 13.4811 10.8536 13.6785C11.2291 14.5023 11.4885 15.4237 11.6151 16.2008C12.8328 16.1964 13.9507 16.1444 15.0486 16.0013C14.7008 15.8265 14.3514 15.576 14.1022 15.3302C13.4559 15.341 12.9501 15.3259 12.3595 15.2902C11.613 13.1936 11.3091 10.8676 11.1478 8.92808C11.796 8.69867 12.5019 8.50959 13.0836 8.39962C12.4589 5.79182 10.7965 4.31254 8.67693 2.59585ZM14.2007 3.17027C15.4639 4.52233 16.431 6.23601 17.0637 8.13054C17.5416 8.14274 18.0191 8.16594 18.496 8.20012C18.0731 6.10897 15.7452 3.49905 14.2007 3.17027ZM15.682 8.94722C14.3942 8.99205 13.1286 9.15714 12.0085 9.50147C12.1504 11.1992 12.3276 12.8623 12.9298 14.5074C13.1233 14.5158 13.3158 14.5206 13.5076 14.5222C13.0518 13.5807 13.002 12.2736 13.0716 11.4552C13.3086 9.94857 14.3755 9.18036 15.682 8.94722ZM14.6928 10.1417C13.5846 11.0136 13.6379 12.7067 14.1184 13.9212C14.8164 15.4059 16.3669 15.6861 17.7033 15.8374C17.0638 15.134 16.6713 14.1123 16.6713 13.0025C16.6713 11.6344 17.2675 10.3998 18.1886 9.73133C17.0967 9.61656 15.6228 9.57945 14.6928 10.1417ZM19.7638 10.0159C18.5547 10.0159 17.4799 11.303 17.4799 13.0025C17.4799 14.7021 18.5547 15.9893 19.7638 15.9893C20.9729 15.9893 22.0478 14.7021 22.0478 13.0025C22.0478 11.303 20.9728 10.0159 19.7638 10.0159ZM1.64782 11.2624C0.920538 12.217 0.553211 13.8676 1.61413 14.7326C3.87105 16.5728 6.02218 18.2465 9.1845 19.8453C12.6353 21.5899 16.2978 21.6372 19.2859 19.9307C22.0267 18.3655 22.2374 17.1055 21.7269 15.9404C20.3381 17.1571 18.4407 16.8239 16.7759 16.5382C15.0679 16.8706 13.3229 17.0203 11.7204 17.0116C11.7438 17.236 11.7605 17.4331 11.7811 17.6646C9.97221 18.0537 7.69013 17.9131 6.42154 17.1469C6.44714 16.8882 6.48739 16.606 6.53088 16.3827C5.63158 16.1154 4.62215 15.6055 3.76836 15.1096C3.18936 14.7447 2.60646 14.428 2.11613 13.9988C1.97777 13.8811 1.86843 13.7339 1.84022 13.6124C1.77581 12.8114 1.6923 11.9851 1.64782 11.2624ZM8.02111 14.2445C7.73074 15.0288 7.42334 15.99 7.29971 16.7295C8.30255 17.2317 9.78394 17.2293 10.9042 17.0266C10.8087 16.1486 10.6415 15.2419 10.2888 14.4018C9.46028 14.2658 8.76848 14.2151 8.02111 14.2445Z" fill="black"/>
</svg>
