<svg width="48" height="48" viewBox="0 0 48 48" fill="none" xmlns="http://www.w3.org/2000/svg">
<g filter="url(#filter0_ddii_676_694)">
<rect x="5" y="5" width="30" height="30" rx="5" fill="white"/>
</g>
<path fill-rule="evenodd" clip-rule="evenodd" d="M24.75 26L17.25 21L24.75 16C24.8484 15.9344 24.933 15.8499 24.9989 15.7516C25.0648 15.6532 25.1106 15.5429 25.1338 15.4268C25.1571 15.3107 25.1572 15.1912 25.1342 15.0751C25.1112 14.959 25.0656 14.8485 25 14.75C24.9343 14.6515 24.8499 14.5669 24.7515 14.5011C24.6532 14.4352 24.5428 14.3894 24.4267 14.3661C24.3107 14.3429 24.1912 14.3428 24.075 14.3658C23.9589 14.3887 23.8484 14.4344 23.75 14.5L15.248 20.168C15.111 20.2593 14.9987 20.3831 14.921 20.5282C14.8434 20.6733 14.8027 20.8354 14.8027 21C14.8027 21.1646 14.8434 21.3267 14.921 21.4718C14.9987 21.617 15.111 21.7407 15.248 21.832L23.75 27.5C23.8484 27.5657 23.9589 27.6113 24.075 27.6343C24.1912 27.6572 24.3107 27.6571 24.4267 27.6339C24.5428 27.6107 24.6532 27.5648 24.7515 27.499C24.8499 27.4331 24.9343 27.3485 25 27.25C25.0656 27.1515 25.1112 27.0411 25.1342 26.9249C25.1572 26.8088 25.1571 26.6893 25.1338 26.5732C25.1106 26.4572 25.0648 26.3468 24.9989 26.2485C24.933 26.1501 24.8484 26.0657 24.75 26Z" fill="black"/>
<defs>
<filter id="filter0_ddii_676_694" x="0" y="0" width="48" height="48" filterUnits="userSpaceOnUse" color-interpolation-filters="sRGB">
<feFlood flood-opacity="0" result="BackgroundImageFix"/>
<feColorMatrix in="SourceAlpha" type="matrix" values="0 0 0 0 0 0 0 0 0 0 0 0 0 0 0 0 0 0 127 0" result="hardAlpha"/>
<feOffset dx="4" dy="4"/>
<feGaussianBlur stdDeviation="4.5"/>
<feComposite in2="hardAlpha" operator="out"/>
<feColorMatrix type="matrix" values="0 0 0 0 0 0 0 0 0 0 0 0 0 0 0 0 0 0 0.25 0"/>
<feBlend mode="normal" in2="BackgroundImageFix" result="effect1_dropShadow_676_694"/>
<feColorMatrix in="SourceAlpha" type="matrix" values="0 0 0 0 0 0 0 0 0 0 0 0 0 0 0 0 0 0 127 0" result="hardAlpha"/>
<feOffset dy="4"/>
<feGaussianBlur stdDeviation="2"/>
<feComposite in2="hardAlpha" operator="out"/>
<feColorMatrix type="matrix" values="0 0 0 0 0 0 0 0 0 0 0 0 0 0 0 0 0 0 0.25 0"/>
<feBlend mode="normal" in2="effect1_dropShadow_676_694" result="effect2_dropShadow_676_694"/>
<feBlend mode="normal" in="SourceGraphic" in2="effect2_dropShadow_676_694" result="shape"/>
<feColorMatrix in="SourceAlpha" type="matrix" values="0 0 0 0 0 0 0 0 0 0 0 0 0 0 0 0 0 0 127 0" result="hardAlpha"/>
<feOffset dx="1" dy="2"/>
<feGaussianBlur stdDeviation="2.5"/>
<feComposite in2="hardAlpha" operator="arithmetic" k2="-1" k3="1"/>
<feColorMatrix type="matrix" values="0 0 0 0 0 0 0 0 0 0 0 0 0 0 0 0 0 0 0.25 0"/>
<feBlend mode="normal" in2="shape" result="effect3_innerShadow_676_694"/>
<feColorMatrix in="SourceAlpha" type="matrix" values="0 0 0 0 0 0 0 0 0 0 0 0 0 0 0 0 0 0 127 0" result="hardAlpha"/>
<feOffset dx="-4" dy="-4"/>
<feGaussianBlur stdDeviation="3.5"/>
<feComposite in2="hardAlpha" operator="arithmetic" k2="-1" k3="1"/>
<feColorMatrix type="matrix" values="0 0 0 0 0 0 0 0 0 0 0 0 0 0 0 0 0 0 0.25 0"/>
<feBlend mode="normal" in2="effect3_innerShadow_676_694" result="effect4_innerShadow_676_694"/>
</filter>
</defs>
</svg>
