<svg width="24" height="24" viewBox="0 0 24 24" fill="none" xmlns="http://www.w3.org/2000/svg">
<path d="M8.00041 11.9999H15.5004M3.32041 12.7739L11.2264 20.6789C11.6534 21.1069 12.3464 21.1069 12.7744 20.6789L20.6794 12.7739C20.8846 12.5686 20.9998 12.2902 20.9998 11.9999C20.9998 11.7097 20.8846 11.4313 20.6794 11.2259L12.7744 3.32092C12.5691 3.11574 12.2907 3.00049 12.0004 3.00049C11.7101 3.00049 11.4317 3.11574 11.2264 3.32092L3.32141 11.2259C3.11623 11.4313 3.00098 11.7097 3.00098 11.9999C3.00098 12.2902 3.11623 12.5686 3.32141 12.7739H3.32041Z" stroke="#5B79A3" stroke-width="2" stroke-linecap="round" stroke-linejoin="round"/>
<path d="M12 8.5L15.5 12L12 15.5" stroke="#5B79A3" stroke-width="2" stroke-linecap="round" stroke-linejoin="round"/>
</svg>
